<svg width="39" height="39" viewBox="0 0 13 13" xmlns="http://www.w3.org/2000/svg" fill="none" aria-hidden="true">
    <defs>
        <linearGradient id="darkSideGrad" x1="0%" y1="0%" x2="0%" y2="100%">
            <stop offset="0%" stop-color="#9D7233"/>
            <stop offset="100%" stop-color="#5b3b1a"/>
        </linearGradient>
        <linearGradient id="darkTopGrad" x1="0%" y1="0%" x2="0%" y2="100%">
            <stop offset="0%" stop-color="#dec49e"/>
            <stop offset="100%" stop-color="#8f5f2d"/>
        </linearGradient>
        <linearGradient id="textGrad" x1="0%" y1="0%" x2="100%" y2="0%">
            <stop offset="0%" stop-color="#5EB6FF"/>
            <stop offset="100%" stop-color="#1A4DFF"/>
        </linearGradient>
    </defs>

    <path d="M2.5 6.5v1.5c0 .8 1.8 1.5 4 1.5s4-.7 4-1.5v-1.5" fill="url(#darkSideGrad)"/>
    <ellipse cx="6.5" cy="6.5" rx="4" ry="1.5" fill="url(#darkTopGrad)"/>
    <path d="M2.5 4.5v1.5c0 .8 1.8 1.5 4 1.5s4-.7 4-1.5v-1.5" fill="url(#darkSideGrad)"/>
    <ellipse cx="6.5" cy="4.5" rx="4" ry="1.5" fill="url(#darkTopGrad)"/>
    <path d="M2.5 2.5v1.5c0 .8 1.8 1.5 4 1.5s4-.7 4-1.5v-1.5" fill="url(#darkSideGrad)"/>
    <ellipse cx="6.5" cy="2.5" rx="4" ry="1.5" fill="url(#darkTopGrad)"/>
    <text x="6.5" y="12.5" text-anchor="middle" textLength="12" font-family="Inter, Segoe UI, Arial, sans-serif"
          font-size="3.6" font-weight="600" fill="url(#textGrad)">MCP
    </text>
</svg>

